<svg xmlns="http://www.w3.org/2000/svg" xmlns:xlink="http://www.w3.org/1999/xlink" version="1.1" x="0px" y="0px" viewBox="0 0 100 125" enable-background="new 0 0 100 100" xml:space="preserve"><path fill-rule="evenodd" clip-rule="evenodd" d="M60.094,22.035c1.649,0-0.328,5.839-0.686,7.519  c-0.338,1.608,0.287,1.608,1.444,0.922C62,29.78,73.74,17.323,75.297,18.368c2.418,1.629-10.583,23.573-10.347,26.974  c0.799,7.171,26.943-17.569,29.801-17.282c1.844,0.174-7.089,16.104-9.712,20.048c-0.318,0.461-0.799,1.045,0.266,0.645  c1.783-0.666,6.372-3.893,7.56-4.026c1.619-0.184,2.459,0.584,1.619,3.288c-2.151,6.915-17.887,30.672-20.028,29.955  c-0.871-0.297-0.922-2.397,1.475-7.366c2.387-4.969,3.545-7.642,4.088-10.224c0.553-2.571-1.834-5.358-4.272-3.37  c-2.448,1.977-9.159,9.609-10.839,8.544c-1.68-1.065,0.553-8.831-3.719-5.624c-3.79,2.838-21.688,22.845-23.931,21.729  c-1.219-0.615-0.748-2.1,0.635-4.538c1.373-2.438,8.544-15.377,10.378-20.11c1.834-4.733,1.977-7.786,0.451-7.632  c-1.526,0.154-7.274,5.266-9.097,6.188c-1.834,0.912-1.281-1.762-2.807-2.684c-1.526-0.912-5.03,1.68-6.259,2.756  c-1.219,1.065-10.081,9.763-11.3,10.828c-1.219,1.076-3.637,2.674-3.452,0.277s4.528-11.289,4.139-11.556  c-0.379-0.266-0.553,0.133-1.752,1.055c-1.188,0.922-9.579,7.017-10.685,7.632c-1.096,0.615-2.889,1.762-2.438-0.154  c0.451-1.905,4.395-7.233,5.952-9.005c1.567-1.772,11.515-12.273,13.01-11.289c1.301,0.861-0.861,5.891,0.307,6.925  c0.83,0.738,2.51-2.428,3.166-2.151c0.717,0.307,8.359-11.433,14.281-16.514c2.479-2.131,0.983,8.482,3.227,7.11  C51.018,35.138,58.394,22.046,60.094,22.035L60.094,22.035z"/></svg>